<?xml version="1.0" encoding="UTF-8" standalone="no"?><!DOCTYPE svg PUBLIC "-//W3C//DTD SVG 1.1//EN" "http://www.w3.org/Graphics/SVG/1.1/DTD/svg11.dtd"><svg width="100%" height="100%" viewBox="0 0 24 24" version="1.1" xmlns="http://www.w3.org/2000/svg" xmlns:xlink="http://www.w3.org/1999/xlink" xml:space="preserve" xmlns:serif="http://www.serif.com/" style="fill-rule:evenodd;clip-rule:evenodd;stroke-linejoin:round;stroke-miterlimit:2;"><rect id="arrow-down" x="0" y="0" width="24" height="24" style="fill:none;"/><path d="M11.712,14.983c0.172,0.122 0.404,0.122 0.576,0c1.468,-1.036 8.101,-5.722 9.821,-6.937c0.225,-0.159 0.537,-0.105 0.697,0.12c0.251,0.356 0.614,0.87 0.865,1.225c0.16,0.226 0.106,0.538 -0.12,0.697c-1.986,1.403 -10.541,7.447 -10.541,7.447c-0.606,0.427 -1.414,0.427 -2.02,-0c0,-0 -8.555,-6.044 -10.541,-7.447c-0.226,-0.159 -0.28,-0.471 -0.12,-0.697c0.251,-0.355 0.614,-0.869 0.865,-1.225c0.16,-0.225 0.472,-0.279 0.697,-0.12c1.72,1.215 8.353,5.901 9.821,6.937Z" style="fill:#fff;"/></svg>