<?xml version="1.0" encoding="UTF-8" standalone="no"?><!DOCTYPE svg PUBLIC "-//W3C//DTD SVG 1.1//EN" "http://www.w3.org/Graphics/SVG/1.1/DTD/svg11.dtd"><svg width="100%" height="100%" viewBox="0 0 24 25" version="1.1" xmlns="http://www.w3.org/2000/svg" xmlns:xlink="http://www.w3.org/1999/xlink" xml:space="preserve" xmlns:serif="http://www.serif.com/" style="fill-rule:evenodd;clip-rule:evenodd;stroke-linejoin:round;stroke-miterlimit:2;"><rect id="email" x="0" y="0.75" width="24" height="24" style="fill:none;"/><clipPath id="_clip1"><rect x="0" y="0.75" width="24" height="24"/></clipPath><g clip-path="url(#_clip1)"><path d="M23.5,3.745c0.276,-0 0.5,0.224 0.5,0.5c-0,2.585 -0,14.415 -0,17c-0,0.276 -0.224,0.5 -0.5,0.5c-3.12,-0 -19.88,-0 -23,-0c-0.276,-0 -0.5,-0.224 -0.5,-0.5c0,-2.585 -0,-14.415 0,-17c0,-0.276 0.224,-0.5 0.5,-0.5c3.12,-0 19.88,-0 23,-0Zm-5.693,3.41c0.178,-0.126 0.255,-0.352 0.19,-0.56c-0.066,-0.209 -0.259,-0.35 -0.477,-0.35c-2.735,-0 -8.305,-0 -11.04,-0c-0.218,-0 -0.411,0.141 -0.477,0.35c-0.065,0.208 0.012,0.434 0.19,0.56c2.636,1.844 5.807,4.064 5.807,4.064c-0,0 3.756,-2.629 5.807,-4.064Zm-14.52,1.016c-0.153,-0.106 -0.353,-0.12 -0.518,-0.033c-0.165,0.086 -0.269,0.257 -0.269,0.443c-0,3.137 -0,8.509 -0,10.164c-0,0.133 0.053,0.26 0.146,0.353c0.094,0.094 0.221,0.147 0.354,0.147c2.68,-0 15.32,-0 18,-0c0.133,-0 0.26,-0.053 0.354,-0.147c0.093,-0.093 0.146,-0.22 0.146,-0.353c0,-1.776 0,-7.803 0,-10.164c0,-0.186 -0.104,-0.357 -0.269,-0.443c-0.165,-0.087 -0.365,-0.073 -0.518,0.033c-1.966,1.377 -6.997,4.899 -7.867,5.508c-0.084,0.058 -0.184,0.09 -0.287,0.09c-0.276,-0 -0.842,-0 -1.118,-0c-0.103,-0 -0.203,-0.032 -0.287,-0.09c-0.87,-0.609 -5.901,-4.131 -7.867,-5.508Z" style="fill:#fff;"/></g></svg>