<?xml version="1.0" encoding="UTF-8" standalone="no"?><!DOCTYPE svg PUBLIC "-//W3C//DTD SVG 1.1//EN" "http://www.w3.org/Graphics/SVG/1.1/DTD/svg11.dtd"><svg width="100%" height="100%" viewBox="0 0 24 24" version="1.1" xmlns="http://www.w3.org/2000/svg" xmlns:xlink="http://www.w3.org/1999/xlink" xml:space="preserve" xmlns:serif="http://www.serif.com/" style="fill-rule:evenodd;clip-rule:evenodd;stroke-linejoin:round;stroke-miterlimit:2;"><rect id="external" x="0" y="0" width="24" height="24" style="fill:none;"/><clipPath id="_clip1"><rect x="0" y="0" width="24" height="24"/></clipPath><g clip-path="url(#_clip1)"><path d="M21.5,5.475c-0,-0.202 -0.122,-0.385 -0.309,-0.462c-0.187,-0.077 -0.402,-0.035 -0.545,0.108c-2.001,2.002 -6.931,6.931 -8.292,8.293c-0.196,0.195 -0.512,0.195 -0.708,0c-0.308,-0.308 -0.752,-0.752 -1.06,-1.06c-0.195,-0.196 -0.195,-0.512 -0,-0.708c1.362,-1.361 6.291,-6.291 8.293,-8.292c0.143,-0.143 0.185,-0.359 0.108,-0.545c-0.077,-0.187 -0.26,-0.309 -0.462,-0.309c-1.247,0 -3.134,0 -4.025,0c-0.276,-0 -0.5,-0.224 -0.5,-0.5c0,-0.436 -0,-1.064 -0,-1.5c0,-0.276 0.224,-0.5 0.5,-0.5c1.658,0 6.931,0 8.043,0c0.133,0 0.26,0.053 0.353,0.146c0.241,0.241 0.717,0.717 0.958,0.958c0.093,0.093 0.146,0.22 0.146,0.353c-0,1.112 -0,6.385 -0,8.043c-0,0.276 -0.224,0.5 -0.5,0.5c-0.436,0 -1.064,-0 -1.5,-0c-0.276,-0 -0.5,-0.224 -0.5,-0.5c-0,-0.347 0,-0.75 0,-0.75c-0,-0.004 -0,-1.666 -0,-3.275Zm-4,7.775c0,-0.276 0.224,-0.5 0.5,-0.5c0.436,-0 1.064,0 1.5,0c0.276,0 0.5,0.224 0.5,0.5c0,1.824 0,8.074 0,9.293c0,0.133 -0.053,0.26 -0.146,0.353c-0.241,0.241 -0.717,0.717 -0.958,0.958c-0.093,0.093 -0.22,0.146 -0.353,0.146c-1.833,-0 -15.253,-0 -17.086,-0c-0.133,-0 -0.26,-0.053 -0.353,-0.146c-0.241,-0.241 -0.717,-0.717 -0.958,-0.958c-0.093,-0.093 -0.146,-0.22 -0.146,-0.353c-0,-1.833 -0,-15.253 0,-17.086c0,-0.133 0.053,-0.26 0.146,-0.353c0.241,-0.241 0.717,-0.717 0.958,-0.958c0.093,-0.093 0.22,-0.146 0.353,-0.146c1.219,0 7.469,0 9.293,0c0.276,-0 0.5,0.224 0.5,0.5c0,0.436 -0,1.064 -0,1.5c0,0.133 -0.053,0.26 -0.146,0.354c-0.094,0.093 -0.221,0.146 -0.354,0.146c-1.541,-0 -6.209,-0 -7.75,-0c-0.276,-0 -0.5,0.224 -0.5,0.5c-0,2.286 -0,11.726 -0,14.004c-0,0.134 0.054,0.263 0.15,0.357c0.096,0.094 0.226,0.145 0.36,0.143c2.54,-0.004 13.723,-0.004 14.453,-0.004c0.019,-0.053 0.028,-0.109 0.028,-0.166c0.009,-1.014 0.009,-6.405 0.009,-8.084Z" style="fill:#fff;"/></g></svg>