<?xml version="1.0" encoding="UTF-8" standalone="no"?><!DOCTYPE svg PUBLIC "-//W3C//DTD SVG 1.1//EN" "http://www.w3.org/Graphics/SVG/1.1/DTD/svg11.dtd"><svg width="100%" height="100%" viewBox="0 0 145 145" version="1.1" xmlns="http://www.w3.org/2000/svg" xmlns:xlink="http://www.w3.org/1999/xlink" xml:space="preserve" xmlns:serif="http://www.serif.com/" style="fill-rule:evenodd;clip-rule:evenodd;stroke-linejoin:round;stroke-miterlimit:2;"><rect id="favicon" x="0.553" y="0.534" width="144" height="144" style="fill:none;"/><clipPath id="_clip1"><rect x="0.553" y="0.534" width="144" height="144"/></clipPath><g clip-path="url(#_clip1)"><g><path d="M144.553,22.848l-0,99.372c-0,12.316 -9.999,22.314 -22.314,22.314l-99.372,0c-12.316,0 -22.314,-9.998 -22.314,-22.314l-0,-99.372c-0,-12.315 9.998,-22.314 22.314,-22.314l99.372,0c12.315,0 22.314,9.999 22.314,22.314Z"/><path d="M40.196,49.998c0.068,-0.032 0.136,-0.062 0.204,-0.088c0.061,-0.024 0.124,-0.044 0.187,-0.06l31.572,-8.197c0.277,-0.072 0.565,-0.072 0.842,-0l31.593,8.197c0.063,0.016 0.125,0.036 0.186,0.06c0.042,0.016 0.084,0.034 0.126,0.052c1.891,-3.243 4.694,-5.429 4.767,-5.294c2.665,-1.193 6.274,-2.332 9.471,-1.799c2.566,0.427 4.89,1.863 6.63,4.544c1.704,2.627 2.954,6.529 3.025,12.398c0.106,8.826 -3.55,16.177 -8.293,21.514c-4.286,4.821 -9.341,8.001 -12.028,9.484c-0.035,0.019 -0.07,0.037 -0.105,0.053c-0.284,0.52 -4.825,0.835 -11.497,0.983c-7.244,5.682 -17.399,11.609 -24.216,11.625l-0.007,-0c-6.816,-0.016 -16.984,-5.942 -24.242,-11.623c-6.728,-0.146 -11.315,-0.463 -11.602,-0.985c-0.036,-0.016 -0.071,-0.034 -0.106,-0.053c-2.69,-1.483 -7.753,-4.663 -12.05,-9.484c-4.757,-5.337 -8.431,-12.688 -8.347,-21.514c0.056,-5.869 1.296,-9.771 2.994,-12.398c1.733,-2.681 4.054,-4.117 6.618,-4.544c3.196,-0.533 6.808,0.606 9.477,1.799c0.072,-0.136 2.901,2.067 4.801,5.33Zm3.142,32.831c-1.219,-4.075 -6.396,-13.471 -5.797,-24.908c-2.005,-2.073 -4.796,-4.622 -8.001,-5.345c-5.113,-1.153 -6.4,3.955 -6.191,7.326c0.505,8.133 2.628,11.583 5.466,14.849c3.879,4.466 12.356,7.528 14.523,8.078Zm59.431,0.044c2.12,-0.493 9.58,-3.53 13.558,-8.122c2.83,-3.266 4.944,-6.716 5.429,-14.849c0.201,-3.371 -1.099,-8.479 -6.209,-7.326c-3.152,0.711 -5.899,3.191 -7.891,5.246c0.381,11.104 -3.757,20.214 -4.887,25.051Z" style="fill:#fff;"/></g></g></svg>