<?xml version="1.0" encoding="UTF-8" standalone="no"?><!DOCTYPE svg PUBLIC "-//W3C//DTD SVG 1.1//EN" "http://www.w3.org/Graphics/SVG/1.1/DTD/svg11.dtd"><svg width="100%" height="100%" viewBox="0 0 24 25" version="1.1" xmlns="http://www.w3.org/2000/svg" xmlns:xlink="http://www.w3.org/1999/xlink" xml:space="preserve" xmlns:serif="http://www.serif.com/" style="fill-rule:evenodd;clip-rule:evenodd;stroke-linejoin:round;stroke-miterlimit:2;"><rect id="form" x="0" y="0.289" width="24" height="24" style="fill:none;"/><clipPath id="_clip1"><rect x="0" y="0.289" width="24" height="24"/></clipPath><g clip-path="url(#_clip1)"><path d="M20.5,0.284c0.276,0 0.5,0.224 0.5,0.5l-0,23c-0,0.276 -0.224,0.5 -0.5,0.5l-17,0c-0.276,0 -0.5,-0.224 -0.5,-0.5l0,-23c0,-0.276 0.224,-0.5 0.5,-0.5l17,0Zm-2,3c-0,-0.276 -0.224,-0.5 -0.5,-0.5l-12,0c-0.276,0 -0.5,0.224 -0.5,0.5l0,18c0,0.276 0.224,0.5 0.5,0.5l12,0c0.276,0 0.5,-0.224 0.5,-0.5l-0,-18Zm-1.5,5.5l0,1.5c0,0.276 -0.224,0.5 -0.5,0.5l-9,0c-0.276,0 -0.5,-0.224 -0.5,-0.5l-0,-1.5c-0,-0.276 0.224,-0.5 0.5,-0.5l9,0c0.276,0 0.5,0.224 0.5,0.5Zm0,-4l0,1.5c0,0.276 -0.224,0.5 -0.5,0.5l-9,0c-0.276,0 -0.5,-0.224 -0.5,-0.5l-0,-1.5c-0,-0.276 0.224,-0.5 0.5,-0.5l9,0c0.276,0 0.5,0.224 0.5,0.5Zm-4,8l0,1.5c0,0.276 -0.224,0.5 -0.5,0.5l-5,0c-0.276,0 -0.5,-0.224 -0.5,-0.5l-0,-1.5c-0,-0.276 0.224,-0.5 0.5,-0.5l5,0c0.276,0 0.5,0.224 0.5,0.5Z" style="fill:#fff;"/></g></svg>