<?xml version="1.0" encoding="UTF-8" standalone="no"?><!DOCTYPE svg PUBLIC "-//W3C//DTD SVG 1.1//EN" "http://www.w3.org/Graphics/SVG/1.1/DTD/svg11.dtd"><svg width="100%" height="100%" viewBox="0 0 24 25" version="1.1" xmlns="http://www.w3.org/2000/svg" xmlns:xlink="http://www.w3.org/1999/xlink" xml:space="preserve" xmlns:serif="http://www.serif.com/" style="fill-rule:evenodd;clip-rule:evenodd;stroke-linejoin:round;stroke-miterlimit:2;"><rect id="hamburger" x="0" y="0.75" width="24" height="24" style="fill:none;"/><g id="editable"><path d="M22,5.245l0,1.5c0,0.276 -0.224,0.5 -0.5,0.5l-19,-0c-0.276,-0 -0.5,-0.224 -0.5,-0.5l-0,-1.5c-0,-0.276 0.224,-0.5 0.5,-0.5l19,-0c0.276,-0 0.5,0.224 0.5,0.5Z" style="fill:#fff;"/><path d="M22,12l0,1.5c0,0.276 -0.224,0.5 -0.5,0.5l-19,0c-0.276,0 -0.5,-0.224 -0.5,-0.5l0,-1.5c0,-0.276 0.224,-0.5 0.5,-0.5l19,0c0.276,0 0.5,0.224 0.5,0.5Z" style="fill:#fff;"/><path d="M22,19.245l0,1.5c0,0.276 -0.224,0.5 -0.5,0.5l-19,-0c-0.276,-0 -0.5,-0.224 -0.5,-0.5l0,-1.5c0,-0.276 0.224,-0.5 0.5,-0.5l19,-0c0.276,-0 0.5,0.224 0.5,0.5Z" style="fill:#fff;"/></g></svg>