<?xml version="1.0" encoding="UTF-8" standalone="no"?><!DOCTYPE svg PUBLIC "-//W3C//DTD SVG 1.1//EN" "http://www.w3.org/Graphics/SVG/1.1/DTD/svg11.dtd"><svg width="100%" height="100%" viewBox="0 0 128 86" version="1.1" xmlns="http://www.w3.org/2000/svg" xmlns:xlink="http://www.w3.org/1999/xlink" xml:space="preserve" xmlns:serif="http://www.serif.com/" style="fill-rule:evenodd;clip-rule:evenodd;stroke-linejoin:round;stroke-miterlimit:2;"><rect id="mask-small" x="0" y="0.541" width="128" height="85" style="fill:none;"/><path d="M35.238,23.009c0.06,-0.029 0.121,-0.055 0.182,-0.078c0.054,-0.021 0.11,-0.039 0.166,-0.054l28.064,-7.286c0.246,-0.064 0.502,-0.064 0.748,-0l28.083,7.286c0.056,0.015 0.111,0.033 0.166,0.054c0.037,0.014 0.074,0.029 0.111,0.046c1.681,-2.883 4.173,-4.826 4.237,-4.706c2.37,-1.06 5.578,-2.073 8.42,-1.599c2.281,0.38 4.346,1.655 5.893,4.039c1.515,2.335 2.625,5.803 2.688,11.021c0.095,7.845 -3.155,14.379 -7.371,19.123c-3.81,4.285 -8.303,7.112 -10.691,8.43c-0.031,0.017 -0.062,0.033 -0.094,0.048c-0.252,0.461 -4.289,0.742 -10.219,0.873c-6.439,5.051 -15.466,10.319 -21.525,10.333l-0.007,0c-6.059,-0.014 -15.097,-5.281 -21.549,-10.331c-5.98,-0.13 -10.057,-0.411 -10.313,-0.875c-0.031,-0.015 -0.062,-0.031 -0.093,-0.048c-2.392,-1.318 -6.892,-4.145 -10.712,-8.43c-4.228,-4.744 -7.494,-11.278 -7.419,-19.123c0.05,-5.218 1.152,-8.686 2.661,-11.021c1.541,-2.384 3.603,-3.659 5.883,-4.039c2.841,-0.474 6.051,0.539 8.423,1.599c0.065,-0.121 2.58,1.838 4.268,4.738Zm2.793,29.183c-1.083,-3.622 -5.685,-11.974 -5.153,-22.141c-1.782,-1.842 -4.263,-4.108 -7.112,-4.751c-4.544,-1.024 -5.689,3.516 -5.503,6.512c0.449,7.23 2.336,10.296 4.859,13.2c3.448,3.969 10.983,6.691 12.909,7.18Zm52.828,0.039c1.884,-0.438 8.516,-3.138 12.052,-7.219c2.515,-2.904 4.394,-5.97 4.825,-13.2c0.179,-2.996 -0.977,-7.536 -5.519,-6.512c-2.802,0.632 -5.244,2.837 -7.014,4.663c0.339,9.871 -3.34,17.968 -4.344,22.268Z" style="fill:#fff;"/></svg>