<?xml version="1.0" encoding="UTF-8" standalone="no"?><!DOCTYPE svg PUBLIC "-//W3C//DTD SVG 1.1//EN" "http://www.w3.org/Graphics/SVG/1.1/DTD/svg11.dtd"><svg width="100%" height="100%" viewBox="0 0 145 145" version="1.1" xmlns="http://www.w3.org/2000/svg" xmlns:xlink="http://www.w3.org/1999/xlink" xml:space="preserve" xmlns:serif="http://www.serif.com/" style="fill-rule:evenodd;clip-rule:evenodd;stroke-linejoin:round;stroke-miterlimit:2;"><rect id="mask-icon" x="0.553" y="0.534" width="144" height="144" style="fill:none;"/><clipPath id="_clip1"><rect x="0.553" y="0.534" width="144" height="144"/></clipPath><g clip-path="url(#_clip1)"><path d="M144.553,22.848l-0,99.372c-0,12.316 -9.999,22.314 -22.314,22.314l-99.372,0c-12.316,0 -22.314,-9.998 -22.314,-22.314l-0,-99.372c-0,-12.315 9.998,-22.314 22.314,-22.314l99.372,0c12.315,0 22.314,9.999 22.314,22.314Zm-104.357,27.15c-1.9,-3.263 -4.729,-5.466 -4.801,-5.33c-2.669,-1.193 -6.281,-2.332 -9.477,-1.799c-2.564,0.427 -4.885,1.863 -6.618,4.544c-1.698,2.627 -2.938,6.529 -2.994,12.398c-0.084,8.826 3.59,16.177 8.347,21.514c4.297,4.821 9.36,8.001 12.05,9.484c0.035,0.019 0.07,0.037 0.106,0.053c0.287,0.522 4.874,0.839 11.602,0.985c7.258,5.681 17.426,11.607 24.242,11.623l0.007,-0c6.817,-0.016 16.972,-5.943 24.216,-11.625c6.672,-0.148 11.213,-0.463 11.497,-0.983c0.035,-0.016 0.07,-0.034 0.105,-0.053c2.687,-1.483 7.742,-4.663 12.028,-9.484c4.743,-5.337 8.399,-12.688 8.293,-21.514c-0.071,-5.869 -1.321,-9.771 -3.025,-12.398c-1.74,-2.681 -4.064,-4.117 -6.63,-4.544c-3.197,-0.533 -6.806,0.606 -9.471,1.799c-0.073,-0.135 -2.876,2.051 -4.767,5.294c-0.042,-0.018 -0.084,-0.036 -0.126,-0.052c-0.061,-0.024 -0.123,-0.044 -0.186,-0.06l-31.593,-8.197c-0.277,-0.072 -0.565,-0.072 -0.842,-0l-31.572,8.197c-0.063,0.016 -0.126,0.036 -0.187,0.06c-0.068,0.026 -0.136,0.056 -0.204,0.088Zm3.142,32.831c-2.167,-0.55 -10.644,-3.612 -14.523,-8.078c-2.838,-3.266 -4.961,-6.716 -5.466,-14.849c-0.209,-3.371 1.078,-8.479 6.191,-7.326c3.205,0.723 5.996,3.272 8.001,5.345c-0.599,11.437 4.578,20.833 5.797,24.908Zm59.431,0.044c1.13,-4.837 5.268,-13.947 4.887,-25.051c1.992,-2.055 4.739,-4.535 7.891,-5.246c5.11,-1.153 6.41,3.955 6.209,7.326c-0.485,8.133 -2.599,11.583 -5.429,14.849c-3.978,4.592 -11.438,7.629 -13.558,8.122Z"/></g></svg>