<?xml version="1.0" encoding="UTF-8" standalone="no"?><!DOCTYPE svg PUBLIC "-//W3C//DTD SVG 1.1//EN" "http://www.w3.org/Graphics/SVG/1.1/DTD/svg11.dtd"><svg width="100%" height="100%" viewBox="0 0 128 129" version="1.1" xmlns="http://www.w3.org/2000/svg" xmlns:xlink="http://www.w3.org/1999/xlink" xml:space="preserve" xmlns:serif="http://www.serif.com/" style="fill-rule:evenodd;clip-rule:evenodd;stroke-linejoin:round;stroke-miterlimit:2;"><rect id="mask-icon" x="0" y="0.995" width="128" height="128" style="fill:none;"/><clipPath id="_clip1"><rect x="0" y="0.995" width="128" height="128"/></clipPath><g clip-path="url(#_clip1)"><path d="M128,20.829l0,88.331c0,10.947 -8.888,19.835 -19.834,19.835l-88.332,-0c-10.946,-0 -19.834,-8.888 -19.834,-19.835l0,-88.331c0,-10.947 8.888,-19.834 19.834,-19.834l88.332,-0c10.946,-0 19.834,8.887 19.834,19.834Zm-92.762,24.134c-1.688,-2.9 -4.203,-4.859 -4.268,-4.738c-2.372,-1.06 -5.582,-2.072 -8.423,-1.599c-2.28,0.38 -4.342,1.655 -5.883,4.039c-1.509,2.335 -2.611,5.804 -2.661,11.021c-0.075,7.845 3.191,14.379 7.419,19.123c3.82,4.285 8.32,7.112 10.712,8.43c0.031,0.017 0.062,0.033 0.093,0.048c0.256,0.464 4.333,0.745 10.313,0.875c6.452,5.05 15.49,10.317 21.549,10.331l0.007,0c6.059,-0.014 15.086,-5.282 21.525,-10.333c5.93,-0.131 9.967,-0.412 10.219,-0.873c0.032,-0.015 0.063,-0.031 0.094,-0.048c2.388,-1.318 6.881,-4.145 10.691,-8.43c4.216,-4.744 7.466,-11.278 7.371,-19.123c-0.063,-5.217 -1.173,-8.686 -2.688,-11.021c-1.547,-2.384 -3.612,-3.659 -5.893,-4.039c-2.842,-0.473 -6.05,0.539 -8.42,1.599c-0.064,-0.12 -2.556,1.823 -4.237,4.706c-0.037,-0.017 -0.074,-0.032 -0.111,-0.046c-0.055,-0.021 -0.11,-0.039 -0.166,-0.054l-28.083,-7.286c-0.246,-0.064 -0.502,-0.064 -0.748,-0l-28.064,7.286c-0.056,0.015 -0.112,0.033 -0.166,0.054c-0.061,0.023 -0.122,0.049 -0.182,0.078Zm2.793,29.183c-1.926,-0.489 -9.461,-3.211 -12.909,-7.18c-2.523,-2.904 -4.41,-5.97 -4.859,-13.2c-0.186,-2.996 0.959,-7.536 5.503,-6.512c2.849,0.643 5.33,2.909 7.112,4.751c-0.532,10.167 4.07,18.519 5.153,22.141Zm52.828,0.039c1.004,-4.3 4.683,-12.397 4.344,-22.268c1.77,-1.826 4.212,-4.03 7.014,-4.663c4.542,-1.024 5.698,3.516 5.519,6.512c-0.431,7.23 -2.31,10.296 -4.825,13.2c-3.536,4.082 -10.168,6.781 -12.052,7.219Z"/></g></svg>