<?xml version="1.0" encoding="UTF-8" standalone="no"?><!DOCTYPE svg PUBLIC "-//W3C//DTD SVG 1.1//EN" "http://www.w3.org/Graphics/SVG/1.1/DTD/svg11.dtd"><svg width="100%" height="100%" viewBox="0 0 200 45" version="1.1" xmlns="http://www.w3.org/2000/svg" xmlns:xlink="http://www.w3.org/1999/xlink" xml:space="preserve" xmlns:serif="http://www.serif.com/" style="fill-rule:evenodd;clip-rule:evenodd;stroke-linejoin:round;stroke-miterlimit:2;"><g><g><path d="M3.711,34.255c-0.092,0 -0.138,-0.056 -0.138,-0.17l0.069,-23.41c0,-0.091 0.046,-0.137 0.138,-0.137l4.192,0c0.091,0 0.171,0.046 0.24,0.137l3.127,4.498l3.127,-4.498c0.068,-0.091 0.149,-0.137 0.24,-0.137l4.227,0c0.091,0 0.137,0.046 0.137,0.137l0.069,23.41c-0,0.114 -0.046,0.17 -0.138,0.17l-3.882,0c-0.092,0 -0.138,-0.056 -0.138,-0.17l-0.034,-17.379l-3.608,5.18l-3.574,-5.18l-0.034,17.379c0,0.114 -0.046,0.17 -0.137,0.17l-3.883,0Z" style="fill:#fff;fill-rule:nonzero;"/><path d="M20.857,34.085l4.26,-23.41c0.023,-0.091 0.081,-0.137 0.172,-0.137l4.982,0c0.092,0 0.149,0.046 0.172,0.137l4.089,23.41c0.023,0.114 -0.023,0.17 -0.137,0.17l-3.814,0c-0.092,0 -0.149,-0.056 -0.172,-0.17l-0.378,-2.487l-4.673,-0l-0.378,2.487c-0.023,0.114 -0.08,0.17 -0.172,0.17l-3.814,0c-0.091,0 -0.137,-0.056 -0.137,-0.17Zm5.188,-6.134l3.299,0l-1.409,-9.575l-0.206,-1.261l-0.138,1.261l-1.546,9.575Z" style="fill:#fff;fill-rule:nonzero;"/><path d="M41.851,34.596c-1.237,0 -2.365,-0.312 -3.385,-0.937c-1.019,-0.625 -1.832,-1.454 -2.439,-2.487c-0.607,-1.034 -0.911,-2.176 -0.911,-3.425l0,-1.568c0,-0.113 0.058,-0.17 0.172,-0.17l3.848,0c0.092,0 0.138,0.057 0.138,0.17l-0,1.568c-0,0.75 0.252,1.391 0.756,1.925c0.504,0.534 1.111,0.801 1.821,0.801c0.71,0 1.317,-0.273 1.821,-0.818c0.504,-0.545 0.756,-1.181 0.756,-1.908c-0,-0.841 -0.55,-1.568 -1.649,-2.181c-0.367,-0.204 -0.94,-0.522 -1.718,-0.954c-0.779,-0.432 -1.512,-0.841 -2.199,-1.227c-1.26,-0.727 -2.194,-1.641 -2.801,-2.743c-0.607,-1.102 -0.91,-2.346 -0.91,-3.731c-0,-1.273 0.309,-2.414 0.927,-3.425c0.619,-1.011 1.438,-1.812 2.457,-2.402c1.019,-0.591 2.125,-0.886 3.316,-0.886c1.214,-0 2.331,0.301 3.35,0.903c1.019,0.602 1.833,1.408 2.44,2.419c0.607,1.011 0.91,2.141 0.91,3.391l0,2.794c0,0.091 -0.046,0.136 -0.137,0.136l-3.849,0c-0.091,0 -0.137,-0.045 -0.137,-0.136l-0.034,-2.794c-0,-0.795 -0.252,-1.443 -0.756,-1.943c-0.504,-0.499 -1.1,-0.749 -1.787,-0.749c-0.71,-0 -1.317,0.267 -1.821,0.8c-0.504,0.534 -0.756,1.165 -0.756,1.892c-0,0.749 0.16,1.374 0.481,1.874c0.321,0.5 0.905,0.977 1.752,1.431c0.115,0.068 0.338,0.187 0.67,0.358c0.332,0.17 0.693,0.363 1.083,0.579c0.389,0.216 0.738,0.403 1.048,0.562c0.309,0.159 0.498,0.262 0.567,0.307c1.145,0.636 2.05,1.414 2.714,2.334c0.664,0.92 0.997,2.051 0.997,3.391c-0,1.295 -0.304,2.459 -0.911,3.493c-0.607,1.033 -1.42,1.851 -2.44,2.453c-1.019,0.602 -2.147,0.903 -3.384,0.903Z" style="fill:#fff;fill-rule:nonzero;"/><path d="M51.128,34.255c-0.091,0 -0.137,-0.056 -0.137,-0.17l0.068,-23.376c0,-0.114 0.046,-0.171 0.138,-0.171l3.848,0c0.092,0 0.138,0.057 0.138,0.171l-0,8.076l5.394,-8.11c0.069,-0.091 0.149,-0.137 0.241,-0.137l3.951,0c0.092,0 0.115,0.046 0.069,0.137l-5.944,9.405l6.666,14.039c0.045,0.091 -0.012,0.136 -0.172,0.136l-4.192,0c-0.115,0 -0.183,-0.045 -0.206,-0.136l-4.639,-10.018l-1.203,1.874l0,8.11c0,0.114 -0.045,0.17 -0.137,0.17l-3.883,0Z" style="fill:#fff;fill-rule:nonzero;"/><path d="M72.329,34.255c-0.092,0 -0.138,-0.056 -0.138,-0.17l0.069,-23.41c-0,-0.091 0.046,-0.137 0.137,-0.137l6.598,0c1.305,0 2.473,0.313 3.504,0.938c1.031,0.624 1.844,1.448 2.44,2.47c0.595,1.022 0.893,2.135 0.893,3.34c0,0.976 -0.223,1.885 -0.67,2.726c-0.446,0.84 -0.979,1.522 -1.598,2.044c0.665,0.659 1.18,1.42 1.547,2.283c0.366,0.864 0.549,1.772 0.549,2.726c0,1.318 -0.32,2.522 -0.962,3.612c-0.641,1.091 -1.506,1.96 -2.594,2.607c-1.088,0.648 -2.296,0.971 -3.625,0.971l-6.15,0Zm4.054,-14.312l2.612,0c0.801,0 1.448,-0.278 1.941,-0.834c0.492,-0.557 0.739,-1.165 0.739,-1.823c-0,-0.727 -0.264,-1.358 -0.791,-1.892c-0.527,-0.534 -1.156,-0.801 -1.889,-0.801l-2.612,0l0,5.35Zm-0.034,10.155l2.13,0c0.825,0 1.535,-0.301 2.13,-0.903c0.596,-0.602 0.894,-1.312 0.894,-2.13c-0,-0.817 -0.298,-1.522 -0.894,-2.112c-0.595,-0.591 -1.305,-0.886 -2.13,-0.886l-2.096,-0l-0.034,6.031Z" style="fill:#fff;fill-rule:nonzero;"/><path d="M88.272,34.255c-0.092,0 -0.138,-0.056 -0.138,-0.17l0.035,-23.376c-0,-0.114 0.057,-0.171 0.172,-0.171l3.814,0c0.114,0 0.171,0.057 0.171,0.171l-0.034,19.355l7.078,0c0.115,0 0.172,0.057 0.172,0.17l0,3.851c0,0.114 -0.057,0.17 -0.172,0.17l-11.098,0Z" style="fill:#fff;fill-rule:nonzero;"/><path d="M107.651,34.596c-1.237,0 -2.365,-0.312 -3.384,-0.937c-1.02,-0.625 -1.839,-1.454 -2.457,-2.487c-0.619,-1.034 -0.928,-2.176 -0.928,-3.425l0.034,-10.802c0,-1.25 0.304,-2.386 0.911,-3.408c0.607,-1.022 1.426,-1.84 2.457,-2.453c1.031,-0.614 2.153,-0.92 3.367,-0.92c1.237,-0 2.359,0.306 3.367,0.92c1.008,0.613 1.816,1.431 2.423,2.453c0.607,1.022 0.91,2.158 0.91,3.408l0.035,10.802c-0,1.249 -0.304,2.391 -0.911,3.425c-0.607,1.033 -1.42,1.862 -2.439,2.487c-1.02,0.625 -2.148,0.937 -3.385,0.937Zm0,-4.123c0.687,0 1.289,-0.278 1.804,-0.835c0.515,-0.556 0.773,-1.187 0.773,-1.891l-0.034,-10.802c-0,-0.75 -0.241,-1.386 -0.722,-1.909c-0.481,-0.522 -1.088,-0.783 -1.821,-0.783c-0.71,-0 -1.317,0.255 -1.821,0.766c-0.504,0.512 -0.756,1.153 -0.756,1.926l0,10.802c0,0.75 0.252,1.391 0.756,1.925c0.504,0.534 1.111,0.801 1.821,0.801Z" style="fill:#fff;fill-rule:nonzero;"/><path d="M123.319,34.596c-1.259,0 -2.399,-0.312 -3.418,-0.937c-1.02,-0.625 -1.827,-1.459 -2.423,-2.504c-0.595,-1.045 -0.893,-2.215 -0.893,-3.51l0.034,-10.632c0,-1.25 0.292,-2.391 0.876,-3.425c0.584,-1.033 1.386,-1.863 2.406,-2.487c1.019,-0.625 2.159,-0.937 3.418,-0.937c1.26,-0 2.394,0.306 3.402,0.92c1.008,0.613 1.81,1.437 2.405,2.47c0.596,1.034 0.894,2.187 0.894,3.459l-0,1.567c-0,0.091 -0.046,0.137 -0.138,0.137l-3.848,-0c-0.092,-0 -0.138,-0.046 -0.138,-0.137l0,-1.567c0,-0.75 -0.246,-1.397 -0.738,-1.942c-0.493,-0.546 -1.106,-0.818 -1.839,-0.818c-0.824,-0 -1.454,0.278 -1.889,0.835c-0.436,0.556 -0.653,1.198 -0.653,1.925l-0,10.632c-0,0.84 0.246,1.522 0.739,2.044c0.492,0.523 1.093,0.784 1.803,0.784c0.733,0 1.346,-0.29 1.839,-0.869c0.492,-0.579 0.738,-1.232 0.738,-1.959l0,-1.568c0,-0.091 0.046,-0.136 0.138,-0.136l3.883,-0c0.091,-0 0.137,0.045 0.137,0.136l0,1.568c0,1.295 -0.303,2.465 -0.91,3.51c-0.608,1.045 -1.415,1.879 -2.423,2.504c-1.008,0.625 -2.142,0.937 -3.402,0.937Z" style="fill:#fff;fill-rule:nonzero;"/><path d="M137.785,24.135c-0.091,-0 -0.137,-0.046 -0.137,-0.136l-0,-3.851c-0,-0.091 0.046,-0.136 0.137,-0.136l3.883,-0c0.092,-0 0.137,0.045 0.137,0.136l0,3.851c0,0.09 -0.045,0.136 -0.137,0.136l-3.883,-0Z" style="fill:#fff;fill-rule:nonzero;"/><path d="M156.065,34.596c-1.237,0 -2.365,-0.312 -3.385,-0.937c-1.019,-0.625 -1.838,-1.454 -2.456,-2.487c-0.619,-1.034 -0.928,-2.176 -0.928,-3.425l0.034,-10.802c0,-1.25 0.304,-2.386 0.911,-3.408c0.607,-1.022 1.426,-1.84 2.457,-2.453c1.03,-0.614 2.153,-0.92 3.367,-0.92c1.237,-0 2.359,0.306 3.367,0.92c1.008,0.613 1.816,1.431 2.423,2.453c0.607,1.022 0.91,2.158 0.91,3.408l0.035,10.802c-0,1.249 -0.304,2.391 -0.911,3.425c-0.607,1.033 -1.42,1.862 -2.44,2.487c-1.019,0.625 -2.147,0.937 -3.384,0.937Zm-0,-4.123c0.687,0 1.288,-0.278 1.804,-0.835c0.515,-0.556 0.773,-1.187 0.773,-1.891l-0.034,-10.802c-0,-0.75 -0.241,-1.386 -0.722,-1.909c-0.481,-0.522 -1.088,-0.783 -1.821,-0.783c-0.71,-0 -1.317,0.255 -1.821,0.766c-0.504,0.512 -0.756,1.153 -0.756,1.926l-0,10.802c-0,0.75 0.252,1.391 0.756,1.925c0.504,0.534 1.111,0.801 1.821,0.801Z" style="fill:#fff;fill-rule:nonzero;"/><path d="M165.548,34.255c-0.091,0 -0.137,-0.056 -0.137,-0.17l0.069,-23.41c-0,-0.091 0.045,-0.137 0.137,-0.137l6.941,0c1.237,0 2.376,0.301 3.419,0.903c1.042,0.602 1.872,1.409 2.491,2.42c0.618,1.011 0.928,2.152 0.928,3.425c-0,0.84 -0.126,1.595 -0.378,2.266c-0.252,0.67 -0.55,1.238 -0.894,1.703c-0.343,0.466 -0.653,0.813 -0.927,1.04c1.237,1.363 1.855,2.964 1.855,4.804l0.034,6.986c0,0.114 -0.057,0.17 -0.171,0.17l-3.883,0c-0.092,0 -0.138,-0.034 -0.138,-0.102l0,-7.054c0,-0.817 -0.292,-1.527 -0.876,-2.129c-0.584,-0.602 -1.3,-0.903 -2.147,-0.903l-2.268,-0l-0.034,10.018c-0,0.114 -0.046,0.17 -0.138,0.17l-3.883,0Zm4.055,-14.277l2.955,-0c0.71,-0 1.34,-0.262 1.89,-0.784c0.549,-0.523 0.824,-1.159 0.824,-1.908c0,-0.727 -0.269,-1.352 -0.807,-1.875c-0.538,-0.522 -1.174,-0.783 -1.907,-0.783l-2.955,-0l-0,5.35Z" style="fill:#fff;fill-rule:nonzero;"/><path d="M188.089,34.596c-1.237,0 -2.36,-0.306 -3.368,-0.92c-1.007,-0.613 -1.815,-1.437 -2.422,-2.47c-0.607,-1.034 -0.91,-2.187 -0.91,-3.459l-0,-10.802c-0,-1.227 0.303,-2.357 0.91,-3.391c0.607,-1.033 1.42,-1.857 2.44,-2.47c1.019,-0.614 2.136,-0.92 3.35,-0.92c1.26,-0 2.399,0.301 3.419,0.903c1.019,0.602 1.826,1.414 2.422,2.436c0.596,1.022 0.893,2.17 0.893,3.442l0,1.567c0,0.091 -0.057,0.137 -0.171,0.137l-3.849,-0c-0.091,-0 -0.137,-0.046 -0.137,-0.137l-0,-1.295c-0,-0.863 -0.246,-1.579 -0.739,-2.146c-0.492,-0.568 -1.105,-0.852 -1.838,-0.852c-0.665,-0 -1.254,0.272 -1.77,0.817c-0.515,0.546 -0.773,1.182 -0.773,1.909l0,10.802c0,0.75 0.252,1.391 0.756,1.925c0.504,0.534 1.1,0.801 1.787,0.801c0.733,0 1.346,-0.261 1.838,-0.784c0.493,-0.522 0.739,-1.17 0.739,-1.942l-0,-1.67l-2.405,0c-0.115,0 -0.172,-0.057 -0.172,-0.17l-0,-3.817c-0,-0.113 0.057,-0.17 0.172,-0.17l6.425,-0c0.092,-0 0.137,0.057 0.137,0.17l0,5.657c0,1.272 -0.303,2.425 -0.91,3.459c-0.607,1.033 -1.415,1.857 -2.423,2.47c-1.007,0.614 -2.141,0.92 -3.401,0.92Z" style="fill:#fff;fill-rule:nonzero;"/><rect x="3.573" y="3.539" width="191.25" height="1.875" style="fill:#fff;"/><rect x="4.125" y="39.586" width="191.25" height="1.875" style="fill:#fff;"/></g></g></svg>