<?xml version="1.0" encoding="UTF-8" standalone="no"?><!DOCTYPE svg PUBLIC "-//W3C//DTD SVG 1.1//EN" "http://www.w3.org/Graphics/SVG/1.1/DTD/svg11.dtd"><svg width="100%" height="100%" viewBox="0 0 113 68" version="1.1" xmlns="http://www.w3.org/2000/svg" xmlns:xlink="http://www.w3.org/1999/xlink" xml:space="preserve" xmlns:serif="http://www.serif.com/" style="fill-rule:evenodd;clip-rule:evenodd;stroke-linejoin:round;stroke-miterlimit:2;"><g><path d="M89.863,23.486c1.873,-0.646 5.749,-1.782 9.028,-1.446c1.656,0.17 3.163,0.71 4.267,1.777c1.108,1.071 1.843,2.681 1.842,5.073c-0.001,3.92 -2.816,7.123 -6.288,9.493c-3.429,2.341 -7.453,3.879 -9.588,4.599c0.241,-0.649 0.465,-1.401 0.668,-2.227c2.13,-0.788 5.186,-2.098 7.861,-3.924c2.939,-2.007 5.467,-4.622 5.468,-7.941c0,-1.743 -0.462,-2.942 -1.269,-3.722c-0.81,-0.783 -1.936,-1.133 -3.153,-1.258c-2.993,-0.308 -6.531,0.751 -8.23,1.348c-0.164,-0.681 -0.367,-1.278 -0.606,-1.772Z" style="fill:#fff;"/><path d="M23.376,42.982c-2.135,-0.72 -6.159,-2.258 -9.588,-4.599c-3.472,-2.37 -6.287,-5.573 -6.288,-9.493c-0.001,-2.392 0.734,-4.002 1.842,-5.073c1.104,-1.067 2.611,-1.607 4.267,-1.777c3.279,-0.336 7.155,0.8 9.028,1.446c-0.239,0.494 -0.442,1.091 -0.606,1.772c-1.699,-0.597 -5.237,-1.656 -8.23,-1.348c-1.217,0.125 -2.343,0.475 -3.153,1.258c-0.807,0.78 -1.269,1.979 -1.269,3.722c0.001,3.319 2.529,5.934 5.468,7.941c2.675,1.826 5.731,3.136 7.861,3.924c0.203,0.826 0.427,1.578 0.668,2.227Z" style="fill:#fff;"/><path d="M30.291,20.497c1.932,-3.566 9.889,-7.37 17.828,-9.82c2.344,-0.724 5.421,-3.941 8.131,-3.941c2.71,0 5.787,3.217 8.131,3.941c7.939,2.45 15.896,6.254 17.828,9.82l-25.697,-4.737c-0.173,-0.032 -0.351,-0.032 -0.524,-0l-25.697,4.737Z" style="fill:#fff;"/><path d="M73.134,54.025c-5.301,3.418 -11.768,6.739 -16.884,6.739c-5.116,0 -11.583,-3.321 -16.884,-6.739c5.811,2.62 12.165,4.707 16.882,4.715c0.001,-0 0.003,-0 0.004,-0c4.717,-0.008 11.071,-2.095 16.882,-4.715Z" style="fill:#fff;"/><path d="M56.25,17.181l31.115,5.736c3.402,0.93 2.338,15.941 -0,20.5c-1.52,2.963 -20.534,13.86 -31.115,13.877c-10.581,-0.017 -29.595,-10.914 -31.115,-13.877c-2.338,-4.559 -3.402,-19.57 0,-20.5l31.115,-5.736Z" style="fill:#fff;"/></g></svg>