<?xml version="1.0" encoding="UTF-8" standalone="no"?><!DOCTYPE svg PUBLIC "-//W3C//DTD SVG 1.1//EN" "http://www.w3.org/Graphics/SVG/1.1/DTD/svg11.dtd"><svg width="100%" height="100%" viewBox="0 0 25 25" version="1.1" xmlns="http://www.w3.org/2000/svg" xmlns:xlink="http://www.w3.org/1999/xlink" xml:space="preserve" xmlns:serif="http://www.serif.com/" style="fill-rule:evenodd;clip-rule:evenodd;stroke-linejoin:round;stroke-miterlimit:2;"><rect id="moon" x="0.553" y="0.289" width="24" height="24" style="fill:none;"/><clipPath id="_clip1"><rect x="0.553" y="0.289" width="24" height="24"/></clipPath><g clip-path="url(#_clip1)"><path d="M1.999,18.16c-0.201,-0.081 -0.432,-0.021 -0.569,0.147c-0.137,0.169 -0.149,0.407 -0.028,0.588c2.311,3.261 6.115,5.394 10.413,5.394c7.03,0 12.738,-5.708 12.738,-12.738c-0,-4.298 -2.133,-8.101 -5.397,-10.409c-0.18,-0.117 -0.414,-0.106 -0.581,0.03c-0.166,0.135 -0.226,0.362 -0.147,0.562c0.526,1.403 0.817,2.923 0.817,4.509c0,7.031 -5.708,12.739 -12.738,12.739c-1.587,-0 -3.106,-0.291 -4.508,-0.822Z" style="fill:#fff;"/></g></svg>