<?xml version="1.0" encoding="UTF-8" standalone="no"?><!DOCTYPE svg PUBLIC "-//W3C//DTD SVG 1.1//EN" "http://www.w3.org/Graphics/SVG/1.1/DTD/svg11.dtd"><svg width="100%" height="100%" viewBox="0 0 24 24" version="1.1" xmlns="http://www.w3.org/2000/svg" xmlns:xlink="http://www.w3.org/1999/xlink" xml:space="preserve" xmlns:serif="http://www.serif.com/" style="fill-rule:evenodd;clip-rule:evenodd;stroke-linejoin:round;stroke-miterlimit:2;"><rect id="search" x="0" y="0" width="24" height="24" style="fill:none;"/><clipPath id="_clip1"><rect x="0" y="0" width="24" height="24"/></clipPath><g clip-path="url(#_clip1)"><path d="M14.717,16.485c-0.172,-0.171 -0.441,-0.195 -0.64,-0.055c-1.445,0.99 -3.194,1.57 -5.077,1.57c-4.967,0 -9,-4.033 -9,-9c0,-4.967 4.033,-9 9,-9c4.967,-0 9,4.033 9,9c0,1.883 -0.58,3.632 -1.57,5.078c-0.139,0.198 -0.115,0.467 0.056,0.638c1.189,1.191 5.583,5.585 6.866,6.868c0.195,0.195 0.195,0.512 -0,0.707c-0.308,0.308 -0.753,0.753 -1.061,1.061c-0.195,0.195 -0.512,0.195 -0.707,-0c-1.283,-1.283 -5.677,-5.677 -6.867,-6.867Zm-5.717,-13.985c-3.587,-0 -6.5,2.913 -6.5,6.5c0,3.587 2.913,6.5 6.5,6.5c3.587,0 6.5,-2.913 6.5,-6.5c0,-3.587 -2.913,-6.5 -6.5,-6.5Z" style="fill:#fff;"/></g></svg>