<?xml version="1.0" encoding="UTF-8" standalone="no"?><!DOCTYPE svg PUBLIC "-//W3C//DTD SVG 1.1//EN" "http://www.w3.org/Graphics/SVG/1.1/DTD/svg11.dtd"><svg width="100%" height="100%" viewBox="0 0 25 25" version="1.1" xmlns="http://www.w3.org/2000/svg" xmlns:xlink="http://www.w3.org/1999/xlink" xml:space="preserve" xmlns:serif="http://www.serif.com/" style="fill-rule:evenodd;clip-rule:evenodd;stroke-linejoin:round;stroke-miterlimit:2;"><rect id="sun" x="0.553" y="0.289" width="24" height="24" style="fill:none;"/><clipPath id="_clip1"><rect x="0.553" y="0.289" width="24" height="24"/></clipPath><g clip-path="url(#_clip1)"><circle cx="12.553" cy="12.289" r="7" style="fill:#fff;"/><path d="M23.053,10.789c0.828,0 1.5,0.672 1.5,1.5c-0,0.828 -0.672,1.5 -1.5,1.5c-0.828,0 -1.5,-0.672 -1.5,-1.5c-0,-0.828 0.672,-1.5 1.5,-1.5Zm-10.5,-10.5c0.828,0 1.5,0.672 1.5,1.5c-0,0.828 -0.672,1.5 -1.5,1.5c-0.828,0 -1.5,-0.672 -1.5,-1.5c-0,-0.828 0.672,-1.5 1.5,-1.5Zm-0,21c0.828,0 1.5,0.672 1.5,1.5c-0,0.828 -0.672,1.5 -1.5,1.5c-0.828,0 -1.5,-0.672 -1.5,-1.5c-0,-0.828 0.672,-1.5 1.5,-1.5Zm-10.5,-10.5c0.828,0 1.5,0.672 1.5,1.5c-0,0.828 -0.672,1.5 -1.5,1.5c-0.828,0 -1.5,-0.672 -1.5,-1.5c-0,-0.828 0.672,-1.5 1.5,-1.5Z" style="fill:#fff;"/><path d="M21.038,18.653c0.585,0.586 0.585,1.536 0,2.122c-0.585,0.585 -1.536,0.585 -2.121,-0c-0.586,-0.586 -0.586,-1.536 -0,-2.122c0.585,-0.585 1.536,-0.585 2.121,0Zm0,-14.849c0.585,0.585 0.585,1.536 0,2.121c-0.585,0.586 -1.536,0.586 -2.121,0c-0.586,-0.585 -0.586,-1.536 -0,-2.121c0.585,-0.585 1.536,-0.585 2.121,-0Zm-14.849,14.849c0.585,0.586 0.585,1.536 -0,2.122c-0.586,0.585 -1.536,0.585 -2.121,-0c-0.586,-0.586 -0.586,-1.536 -0,-2.122c0.585,-0.585 1.535,-0.585 2.121,0Zm-0,-14.849c0.585,0.585 0.585,1.536 -0,2.121c-0.586,0.586 -1.536,0.586 -2.121,0c-0.586,-0.585 -0.586,-1.536 -0,-2.121c0.585,-0.585 1.535,-0.585 2.121,-0Z" style="fill:#fff;"/></g></svg>