<?xml version="1.0" encoding="UTF-8" standalone="no"?><!DOCTYPE svg PUBLIC "-//W3C//DTD SVG 1.1//EN" "http://www.w3.org/Graphics/SVG/1.1/DTD/svg11.dtd"><svg width="100%" height="100%" viewBox="0 0 24 25" version="1.1" xmlns="http://www.w3.org/2000/svg" xmlns:xlink="http://www.w3.org/1999/xlink" xml:space="preserve" xmlns:serif="http://www.serif.com/" style="fill-rule:evenodd;clip-rule:evenodd;stroke-linejoin:round;stroke-miterlimit:2;"><rect id="web" x="0" y="0.75" width="24" height="24" style="fill:none;"/><clipPath id="_clip1"><rect x="0" y="0.75" width="24" height="24"/></clipPath><g clip-path="url(#_clip1)"><g id="editable"><g><clipPath id="_clip2"><circle cx="12" cy="12.75" r="12"/></clipPath><g clip-path="url(#_clip2)"><path d="M12,0.75c6.623,-0 12,5.377 12,12c0,6.623 -5.377,12 -12,12c-6.623,-0 -12,-5.377 -12,-12c0,-6.623 5.377,-12 12,-12Zm0,2.5c-5.243,-0 -9.5,4.257 -9.5,9.5c0,5.243 4.257,9.5 9.5,9.5c5.243,-0 9.5,-4.257 9.5,-9.5c0,-5.243 -4.257,-9.5 -9.5,-9.5Z" style="fill:#fff;"/><path d="M12,-34.25c12.694,-0 23,10.306 23,23c-0,12.694 -10.306,23 -23,23c-12.694,-0 -23,-10.306 -23,-23c-0,-12.694 10.306,-23 23,-23Zm-0,2.5c-11.314,-0 -20.5,9.186 -20.5,20.5c-0,11.314 9.186,20.5 20.5,20.5c11.314,-0 20.5,-9.186 20.5,-20.5c-0,-11.314 -9.186,-20.5 -20.5,-20.5Z" style="fill:#fff;"/><path d="M30,-10.25c12.694,-0 23,10.306 23,23c-0,12.694 -10.306,23 -23,23c-12.694,-0 -23,-10.306 -23,-23c-0,-12.694 10.306,-23 23,-23Zm-0,2.5c-11.314,-0 -20.5,9.186 -20.5,20.5c-0,11.314 9.186,20.5 20.5,20.5c11.314,-0 20.5,-9.186 20.5,-20.5c-0,-11.314 -9.186,-20.5 -20.5,-20.5Z" style="fill:#fff;"/><path d="M-6,-10.25c12.694,-0 23,10.306 23,23c-0,12.694 -10.306,23 -23,23c-12.694,-0 -23,-10.306 -23,-23c-0,-12.694 10.306,-23 23,-23Zm-0,2.5c-11.314,-0 -20.5,9.186 -20.5,20.5c-0,11.314 9.186,20.5 20.5,20.5c11.314,-0 20.5,-9.186 20.5,-20.5c-0,-11.314 -9.186,-20.5 -20.5,-20.5Z" style="fill:#fff;"/><path d="M12,13.75c12.694,-0 23,10.306 23,23c-0,12.694 -10.306,23 -23,23c-12.694,-0 -23,-10.306 -23,-23c-0,-12.694 10.306,-23 23,-23Zm-0,2.5c-11.314,-0 -20.5,9.186 -20.5,20.5c-0,11.314 9.186,20.5 20.5,20.5c11.314,-0 20.5,-9.186 20.5,-20.5c-0,-11.314 -9.186,-20.5 -20.5,-20.5Z" style="fill:#fff;"/></g></g></g><path d="M1.753,18.994c-0.434,-0.709 -0.796,-1.468 -1.076,-2.264c-0.439,-1.246 -0.677,-2.585 -0.677,-3.98c0,-1.395 0.238,-2.734 0.677,-3.98c0.28,-0.796 0.642,-1.555 1.076,-2.264c1.829,-2.994 4.933,-5.125 8.554,-5.637c0.553,-0.079 1.118,-0.119 1.693,-0.119c0.575,-0 1.14,0.04 1.693,0.119c3.621,0.512 6.725,2.643 8.554,5.637c0.434,0.709 0.796,1.468 1.076,2.264c0.439,1.246 0.677,2.585 0.677,3.98c0,1.395 -0.238,2.734 -0.677,3.98c-0.28,0.796 -0.642,1.555 -1.076,2.264c-1.829,2.994 -4.933,5.125 -8.554,5.637c-0.553,0.079 -1.118,0.119 -1.693,0.119c-0.575,-0 -1.14,-0.04 -1.693,-0.119c-3.621,-0.512 -6.725,-2.643 -8.554,-5.637Zm18.794,-3.601c0.134,0.054 0.284,0.048 0.413,-0.016c0.129,-0.065 0.223,-0.182 0.259,-0.322c0.183,-0.738 0.281,-1.51 0.281,-2.305c0,-0.795 -0.098,-1.567 -0.282,-2.305c-0.036,-0.139 -0.131,-0.256 -0.259,-0.32c-0.128,-0.064 -0.278,-0.07 -0.411,-0.016c-1.029,0.41 -2.095,0.751 -3.19,1.013c-0.234,0.055 -0.396,0.27 -0.384,0.511c0.017,0.37 0.026,0.742 0.026,1.117c-0,0.375 -0.009,0.747 -0.027,1.117c-0.011,0.241 0.151,0.456 0.385,0.511c1.095,0.262 2.161,0.603 3.189,1.015Zm-17.094,-5.286c-0.134,-0.054 -0.284,-0.048 -0.413,0.016c-0.129,0.065 -0.223,0.182 -0.259,0.322c-0.183,0.738 -0.281,1.51 -0.281,2.305c0,0.795 0.098,1.567 0.282,2.305c0.036,0.139 0.131,0.256 0.259,0.32c0.128,0.064 0.278,0.07 0.411,0.016c1.029,-0.41 2.095,-0.751 3.19,-1.013c0.234,-0.055 0.396,-0.27 0.384,-0.511c-0.017,-0.37 -0.026,-0.742 -0.026,-1.117c-0,-0.375 0.009,-0.747 0.027,-1.117c0.011,-0.241 -0.151,-0.456 -0.385,-0.511c-1.095,-0.262 -2.161,-0.603 -3.189,-1.015Zm4.923,-5.207c0.072,-0.191 0.02,-0.407 -0.132,-0.544c-0.151,-0.137 -0.371,-0.169 -0.554,-0.079c-1.317,0.678 -2.458,1.65 -3.332,2.831c-0.09,0.125 -0.117,0.284 -0.073,0.431c0.043,0.147 0.152,0.266 0.294,0.323c0.733,0.286 1.486,0.531 2.257,0.731c0.133,0.034 0.274,0.011 0.39,-0.062c0.116,-0.073 0.197,-0.191 0.223,-0.326c0.228,-1.134 0.54,-2.238 0.927,-3.305Zm-0.926,12.395c-0.027,-0.135 -0.107,-0.253 -0.224,-0.327c-0.116,-0.073 -0.257,-0.095 -0.39,-0.061c-0.771,0.2 -1.524,0.445 -2.257,0.73c-0.144,0.056 -0.253,0.176 -0.297,0.324c-0.044,0.148 -0.016,0.307 0.074,0.433c0.876,1.179 2.017,2.151 3.336,2.824c0.182,0.088 0.398,0.057 0.548,-0.079c0.149,-0.136 0.201,-0.348 0.131,-0.537c-0.382,-1.069 -0.694,-2.173 -0.921,-3.307Zm2.602,-5.627c-0.138,-0.012 -0.274,0.033 -0.376,0.125c-0.103,0.091 -0.164,0.221 -0.168,0.359c-0.005,0.199 -0.008,0.398 -0.008,0.598c-0,0.2 0.003,0.399 0.009,0.598c0.004,0.137 0.064,0.267 0.167,0.358c0.103,0.092 0.239,0.137 0.376,0.125c0.642,-0.053 1.292,-0.081 1.948,-0.081c0.656,-0 1.306,0.028 1.948,0.082c0.138,0.012 0.274,-0.033 0.376,-0.125c0.103,-0.091 0.164,-0.221 0.168,-0.359c0.005,-0.199 0.008,-0.398 0.008,-0.598c-0,-0.2 -0.003,-0.399 -0.009,-0.598c-0.004,-0.137 -0.064,-0.267 -0.167,-0.358c-0.103,-0.092 -0.239,-0.137 -0.376,-0.125c-0.642,0.053 -1.292,0.081 -1.948,0.081c-0.656,-0 -1.306,-0.028 -1.948,-0.082Zm9.369,-3.805c0.144,-0.056 0.253,-0.176 0.297,-0.324c0.044,-0.148 0.016,-0.307 -0.074,-0.433c-0.876,-1.179 -2.017,-2.151 -3.336,-2.824c-0.182,-0.088 -0.398,-0.057 -0.548,0.079c-0.149,0.136 -0.201,0.348 -0.131,0.537c0.382,1.069 0.694,2.173 0.921,3.307c0.027,0.135 0.107,0.253 0.224,0.327c0.116,0.073 0.257,0.095 0.39,0.061c0.771,-0.2 1.524,-0.445 2.257,-0.73Zm-3.797,12.737c-0.072,0.191 -0.02,0.407 0.132,0.544c0.151,0.137 0.371,0.169 0.554,0.079c1.317,-0.678 2.458,-1.65 3.332,-2.831c0.09,-0.125 0.117,-0.284 0.073,-0.431c-0.043,-0.147 -0.152,-0.266 -0.294,-0.323c-0.733,-0.286 -1.486,-0.531 -2.257,-0.731c-0.133,-0.034 -0.274,-0.011 -0.39,0.062c-0.116,0.073 -0.197,0.191 -0.223,0.326c-0.228,1.134 -0.54,2.238 -0.927,3.305Zm-3.456,-17.349c-0.056,-0.001 -0.112,-0.001 -0.168,-0.001c-0.056,-0 -0.112,0 -0.168,0.001c-0.87,1.659 -1.519,3.452 -1.909,5.339c-0.028,0.14 0.005,0.285 0.091,0.399c0.085,0.114 0.216,0.186 0.358,0.198c0.537,0.041 1.08,0.063 1.628,0.063c0.548,-0 1.091,-0.022 1.628,-0.064c0.142,-0.011 0.273,-0.083 0.359,-0.197c0.086,-0.114 0.119,-0.26 0.091,-0.4c-0.391,-1.886 -1.04,-3.679 -1.91,-5.338Zm-1.796,13.063c-0.142,0.011 -0.273,0.083 -0.359,0.197c-0.086,0.114 -0.119,0.26 -0.091,0.4c0.391,1.886 1.04,3.679 1.91,5.338c0.056,0.001 0.112,0.001 0.168,0.001c0.056,-0 0.112,-0 0.168,-0.001c0.87,-1.659 1.519,-3.452 1.909,-5.339c0.028,-0.14 -0.005,-0.285 -0.091,-0.399c-0.085,-0.114 -0.216,-0.186 -0.358,-0.198c-0.537,-0.041 -1.08,-0.063 -1.628,-0.063c-0.548,-0 -1.091,0.022 -1.628,0.064Z" style="fill:#fff;"/></g></svg>