<?xml version="1.0" encoding="UTF-8" standalone="no"?><!DOCTYPE svg PUBLIC "-//W3C//DTD SVG 1.1//EN" "http://www.w3.org/Graphics/SVG/1.1/DTD/svg11.dtd"><svg width="100%" height="100%" viewBox="0 0 24 24" version="1.1" xmlns="http://www.w3.org/2000/svg" xmlns:xlink="http://www.w3.org/1999/xlink" xml:space="preserve" xmlns:serif="http://www.serif.com/" style="fill-rule:evenodd;clip-rule:evenodd;stroke-linejoin:round;stroke-miterlimit:2;"><rect id="xmark" x="0" y="0" width="24" height="24" style="fill:none;"/><path d="M9.879,12.354c0.093,-0.094 0.146,-0.221 0.146,-0.354c0,-0.133 -0.053,-0.26 -0.146,-0.354c-1.351,-1.35 -6.175,-6.174 -7.525,-7.525c-0.196,-0.195 -0.196,-0.512 -0,-0.707c0.308,-0.308 0.752,-0.752 1.06,-1.06c0.195,-0.196 0.512,-0.196 0.707,-0c1.351,1.35 6.175,6.174 7.525,7.525c0.094,0.093 0.221,0.146 0.354,0.146c0.133,0 0.26,-0.053 0.354,-0.146c1.35,-1.351 6.174,-6.175 7.525,-7.525c0.195,-0.196 0.512,-0.196 0.707,-0c0.308,0.308 0.752,0.752 1.06,1.06c0.196,0.195 0.196,0.512 0,0.707c-1.35,1.351 -6.174,6.175 -7.525,7.525c-0.093,0.094 -0.146,0.221 -0.146,0.354c-0,0.133 0.053,0.26 0.146,0.354c1.351,1.35 6.175,6.174 7.525,7.525c0.196,0.195 0.196,0.512 0,0.707c-0.308,0.308 -0.752,0.752 -1.06,1.06c-0.195,0.196 -0.512,0.196 -0.707,0c-1.351,-1.35 -6.175,-6.174 -7.525,-7.525c-0.094,-0.093 -0.221,-0.146 -0.354,-0.146c-0.133,-0 -0.26,0.053 -0.354,0.146c-1.35,1.351 -6.174,6.175 -7.525,7.525c-0.195,0.196 -0.512,0.196 -0.707,0c-0.308,-0.308 -0.752,-0.752 -1.06,-1.06c-0.196,-0.195 -0.196,-0.512 -0,-0.707c1.35,-1.351 6.174,-6.175 7.525,-7.525Z" style="fill:#fff;"/></svg>